<svg xmlns="http://www.w3.org/2000/svg" width="39.504" height="32" viewBox="0 0 39.504 32">
  <defs>
    <style>
      .a {
        fill: #e6472a;
        stroke: #fff;
        stroke-miterlimit: 10;
      }

      .b {
        fill: #fff;
        fill-rule: evenodd;
      }
    </style>
  </defs>
  <g transform="translate(-155.5 -580)">
    <g transform="translate(48.007 574.878)">
      <path class="a"
        d="M495.951,323.741a1.192,1.192,0,0,1-1.619.451l-5.609-3.165a1.193,1.193,0,0,1-.451-1.62l4.918-8.715a1.193,1.193,0,0,1,1.62-.451l5.609,3.165a1.193,1.193,0,0,1,.451,1.62Z"
        transform="translate(-369.12 -300.147)" />
      <path class="a"
        d="M507.252,337.86a1.192,1.192,0,0,1-1.676.121l-4.871-4.214a1.193,1.193,0,0,1-.121-1.677l6.547-7.567a1.193,1.193,0,0,1,1.677-.121l4.87,4.214a1.193,1.193,0,0,1,.121,1.677Z"
        transform="translate(-379.381 -311.966)" />
    </g>
    <g transform="translate(155.5 580)">
      <path class="b"
        d="M1.984,0H37.519A2,2,0,0,1,39.5,1.984v23.38a2.04,2.04,0,0,1-1.984,1.984H25.55v2.171h3.783c1.054,0,1.984,1.364,1.984,2.481H8.124c.062-1.116.992-2.481,2.047-2.481h3.721V27.349H1.984A2,2,0,0,1,0,25.364V1.984A1.959,1.959,0,0,1,1.984,0Zm-.31,1.8H37.829V24.186H1.674Z" />
    </g>
  </g>
</svg>
