<svg xmlns="http://www.w3.org/2000/svg" width="60" height="48" viewBox="0 0 60 48"><defs><style>.a{fill:#1a171b;}</style></defs><path class="a" d="M58.5,42H51V10.637A4.575,4.575,0,0,0,46.5,6H36v6h9V48H58.5A1.5,1.5,0,0,0,60,46.5v-3A1.5,1.5,0,0,0,58.5,42ZM29.273.1l-18,4.663A3.089,3.089,0,0,0,9,7.775V42H1.5A1.5,1.5,0,0,0,0,43.5v3A1.5,1.5,0,0,0,1.5,48H33V3.112A3.025,3.025,0,0,0,29.273.1ZM24.75,27c-1.242,0-2.25-1.343-2.25-3s1.008-3,2.25-3S27,22.344,27,24,25.992,27,24.75,27Z" transform="translate(0 -0.001)"/></svg>