<svg xmlns="http://www.w3.org/2000/svg" width="19.357" height="18" viewBox="0 0 19.357 18"><defs><style>.a{fill:#fff;}.b{fill:#00546c;}</style></defs><g transform="translate(-238.543 -239.346)"><path class="a" d="M240.452,254.459a11.9,11.9,0,0,0,15.538,0,5.508,5.508,0,0,0,1.885-4.68,5.339,5.339,0,0,0-2.656-4.165l-.209-.117a3.107,3.107,0,1,0-4.618,0,5.67,5.67,0,0,0-1,.67,2.759,2.759,0,0,0-1.173-.264,2.7,2.7,0,0,0-1.173.264,6.153,6.153,0,0,0-.863-.6,3.6,3.6,0,1,0-4.885,0c-.028.016-.051.027-.078.043a5.344,5.344,0,0,0-2.656,4.165A5.508,5.508,0,0,0,240.452,254.459Z"/><path class="b" d="M244.332,245.211h0a1.982,1.982,0,1,1,1.989-1.982A1.991,1.991,0,0,1,244.332,245.211Z" transform="translate(-0.589 -0.295)"/><path class="b" d="M247.034,255.625a2.535,2.535,0,0,1,4.979,0,1.326,1.326,0,0,1-.345,1.514,3.251,3.251,0,0,1-1.773.786c-.248.008-.5.008-.747,0a3.229,3.229,0,0,1-1.773-.786A1.329,1.329,0,0,1,247.034,255.625Z" transform="translate(-1.302 -2.208)"/><ellipse class="b" cx="1.126" cy="1.123" rx="1.126" ry="1.123" transform="translate(247.095 247.51)"/><path class="b" d="M255.027,245.394h0a1.486,1.486,0,1,1,1.494-1.487A1.491,1.491,0,0,1,255.027,245.394Z" transform="translate(-2.327 -0.477)"/><path class="b" d="M257.094,254.565a10.082,10.082,0,0,1-2.671,1.661,2.93,2.93,0,0,0-.066-2.114,5.327,5.327,0,0,0-1.9-2.388,2.708,2.708,0,0,0,.294-3.136,3.515,3.515,0,0,1,2.106-.747h0a3.34,3.34,0,0,1,1.7.476,3.743,3.743,0,0,1,1.862,2.927A3.842,3.842,0,0,1,257.094,254.565Z" transform="translate(-2.161 -1.319)"/><path class="b" d="M240.47,251.249a3.744,3.744,0,0,1,1.862-2.926,3.336,3.336,0,0,1,1.7-.476h0a3.516,3.516,0,0,1,2.105.743,2.72,2.72,0,0,0-.367,1.363,2.688,2.688,0,0,0,.662,1.773,5.334,5.334,0,0,0-1.9,2.388,2.939,2.939,0,0,0-.066,2.114,10.109,10.109,0,0,1-2.671-1.661A3.862,3.862,0,0,1,240.47,251.249Z" transform="translate(-0.296 -1.32)"/></g></svg>