<svg xmlns="http://www.w3.org/2000/svg" width="48.093" height="50.012" viewBox="0 0 48.093 50.012"><defs><style>.a{fill:#1a171b;stroke:#fff;stroke-miterlimit:10;stroke-width:2px;}.b{fill:#e6472a;}.c{fill:#fff;}</style></defs><g transform="translate(-161.989 -368.989)"><g transform="translate(163 370)"><path class="a" d="M511.1,350.14a3.5,3.5,0,0,1-4.75,1.323l-16.455-9.286a3.5,3.5,0,0,1-1.323-4.752l14.427-25.566a3.5,3.5,0,0,1,4.752-1.323l16.455,9.286a3.5,3.5,0,0,1,1.323,4.752Z" transform="translate(-488.12 -310.089)"/><path class="a" d="M520.7,364.441a3.5,3.5,0,0,1-4.918.356L501.5,352.434a3.5,3.5,0,0,1-.355-4.92l19.208-22.2a3.5,3.5,0,0,1,4.92-.355l14.288,12.363a3.5,3.5,0,0,1,.355,4.92Z" transform="translate(-494.678 -317.643)"/></g><g transform="translate(186.04 394.96)"><g transform="translate(0 0)"><path class="b" d="M17.27,5.75A11.52,11.52,0,1,0,28.79,17.27,11.52,11.52,0,0,0,17.27,5.75Z" transform="translate(-5.75 -5.75)"/></g><path class="c" d="M39.4,37.431,37.431,39.4a.36.36,0,0,1-.509,0L33.729,36.21,30.7,39.238a.36.36,0,0,1-.509,0l-1.973-1.973a.36.36,0,0,1,0-.509l3.028-3.028L28.219,30.7a.36.36,0,0,1,0-.509l1.973-1.973a.37.37,0,0,1,.508,0l3.028,3.027,3.028-3.027a.36.36,0,0,1,.509,0l1.973,1.973a.359.359,0,0,1,0,.509L36.21,33.728,39.4,36.922A.36.36,0,0,1,39.4,37.431Z" transform="translate(-22.292 -22.292)"/></g></g></svg>