<svg xmlns="http://www.w3.org/2000/svg" width="20.827" height="18" viewBox="0 0 20.827 18"><defs><style>.a{fill:#fff;}</style></defs><g transform="translate(-5.8 -11.8)"><g transform="translate(5.8 11.8)"><path class="a" d="M25.685,23.533H23L22.928,14.6A2.827,2.827,0,0,0,20.1,11.8H8.627A2.827,2.827,0,0,0,5.8,14.627V26.2a3.6,3.6,0,0,0,3.6,3.6H23.14a3.6,3.6,0,0,0,3.487-3.6v-1.72A.942.942,0,0,0,25.685,23.533ZM9.4,27.915a1.72,1.72,0,0,1-1.72-1.72V14.6a.942.942,0,0,1,.942-.942h11.45a.942.942,0,0,1,.942.942l.071,8.929h-9a.942.942,0,0,0-.942.942V26.2A1.72,1.72,0,0,1,9.4,27.915ZM24.742,26.2a1.72,1.72,0,0,1-1.72,1.72H12.585a3.581,3.581,0,0,0,.448-1.72v-.777H24.742Z" transform="translate(-5.8 -11.8)"/><rect class="a" width="6.008" height="1.885" transform="translate(3.298 3.086)"/><rect class="a" width="10.72" height="1.885" transform="translate(3.298 5.914)"/><rect class="a" width="10.72" height="1.885" transform="translate(3.298 8.741)"/></g></g></svg>