<svg xmlns="http://www.w3.org/2000/svg" width="32" height="32" viewBox="0 0 32 32"><defs><style>.a{fill:#fff;}</style></defs><g transform="translate(-4 -4)"><path class="a" d="M20,4A16,16,0,1,0,36,20,16,16,0,0,0,20,4ZM19,33.949v-9.87a12.027,12.027,0,0,0-1.817-.61,4.748,4.748,0,0,1-2.967,1.1,4.748,4.748,0,0,1-2.967-1.1,9.587,9.587,0,0,0-4.157,1.948,14,14,0,1,1,25.808.021,10.229,10.229,0,0,0-4.142-1.969,4.545,4.545,0,0,1-5.934,0A11.152,11.152,0,0,0,21,24.05v9.9c-.332.024-.662.051-1,.051S19.332,33.973,19,33.949Z"/><circle class="a" cx="4.662" cy="4.662" r="4.662" transform="translate(9.554 13.127)"/><circle class="a" cx="4.662" cy="4.662" r="4.662" transform="translate(21.129 13.127)"/></g></svg>