<svg id="logodesjardinsvert" xmlns="http://www.w3.org/2000/svg" xmlns:xlink="http://www.w3.org/1999/xlink" width="120.822" height="26.057" viewBox="0 0 120.822 26.057">
  <defs>
    <clipPath id="clip-path">
      <rect id="Rectangle_34" data-name="Rectangle 34" width="120.822" height="26.057" fill="none"/>
    </clipPath>
  </defs>
  <g id="Groupe_4677" data-name="Groupe 4677" clip-path="url(#clip-path)">
    <path id="Tracé_11930" data-name="Tracé 11930" d="M99.286,18.08h-5V32.553h5.056c4.527,0,7.452-2.832,7.452-7.212,0-4.344-3.018-7.261-7.511-7.261M99.146,30.1H97.24v-9.54h2.037a4.541,4.541,0,0,1,4.594,4.79,4.533,4.533,0,0,1-4.726,4.75" transform="translate(-64.085 -12.288)" fill="#00814d"/>
    <path id="Tracé_11931" data-name="Tracé 11931" d="M0,6.515V19.544l11.283,6.514,11.283-6.514V6.515L11.284,0ZM19.512,8.278v9.5l-8.228,4.75L3.056,17.78v-9.5l8.228-4.75Z" fill="#00814d"/>
    <path id="Tracé_11932" data-name="Tracé 11932" d="M307.216,18.92a1.51,1.51,0,1,1-1.509-1.51,1.511,1.511,0,0,1,1.509,1.51M307,22.179h-2.587V32.1H307Z" transform="translate(-206.753 -11.833)" fill="#00814d"/>
    <path id="Tracé_11933" data-name="Tracé 11933" d="M176.031,35.719c-1.108-.428-1.452-.635-1.452-1.1,0-.444.357-.71.954-.71a3.538,3.538,0,0,1,2.373,1.119l1.5-1.6a5.321,5.321,0,0,0-3.843-1.658c-2.095,0-3.559,1.216-3.559,2.958,0,1.983,1.531,2.756,3.03,3.251.18.059.345.112.5.159.852.269,1.322.418,1.322.933,0,.288-.157.772-1.209.772a3.1,3.1,0,0,1-2.466-1.21l-1.522,1.619a5.007,5.007,0,0,0,3.955,1.778c2.368,0,3.839-1.149,3.839-3s-1.292-2.487-3.421-3.307" transform="translate(-116.671 -21.588)" fill="#00814d"/>
    <path id="Tracé_11934" data-name="Tracé 11934" d="M357.221,35.719c-1.107-.428-1.452-.635-1.452-1.1,0-.444.356-.71.954-.71a3.54,3.54,0,0,1,2.373,1.119l1.5-1.6a5.318,5.318,0,0,0-3.843-1.658c-2.094,0-3.558,1.216-3.558,2.958,0,1.983,1.531,2.756,3.03,3.251.18.059.345.112.5.159.854.269,1.323.418,1.323.933,0,.288-.158.772-1.209.772a3.094,3.094,0,0,1-2.466-1.21l-1.523,1.619a5.005,5.005,0,0,0,3.955,1.778c2.368,0,3.838-1.149,3.838-3s-1.292-2.487-3.421-3.307" transform="translate(-239.82 -21.588)" fill="#00814d"/>
    <path id="Tracé_11935" data-name="Tracé 11935" d="M199.584,18.92a1.51,1.51,0,1,1-1.51-1.51,1.512,1.512,0,0,1,1.51,1.51m-3.072,17.03c1.7,0,2.858-1.172,2.858-3.505V22.179h-2.6V32.338c0,.9-.368,1.347-.988,1.347a1.741,1.741,0,0,1-.862-.243l-.436,2.16a4.944,4.944,0,0,0,2.025.349" transform="translate(-132.187 -11.833)" fill="#00814d"/>
    <path id="Tracé_11936" data-name="Tracé 11936" d="M221.375,32.487a4.921,4.921,0,0,0-2.649-.722,4.556,4.556,0,0,0-3.775,1.655c.176.191,1.292,1.375,1.509,1.6a2.472,2.472,0,0,1,1.368-1.041,2.323,2.323,0,0,1,.692-.1,2.292,2.292,0,0,1,.866.158,1.481,1.481,0,0,1,.965,1.4v.648a5.6,5.6,0,0,0-2.194-.381,3.382,3.382,0,0,0-3.663,3.208,3.065,3.065,0,0,0,3.219,3.118,3.719,3.719,0,0,0,2.526-1.041h.111v.871h2.457V35.371a3.231,3.231,0,0,0-1.432-2.884m-1.024,6.131c0,.5-1.055,1.306-2.3,1.306a1.175,1.175,0,0,1-1.279-1.143c0-.414.23-1.181,1.57-1.181a8.025,8.025,0,0,1,2.012.309v.708h0" transform="translate(-145.785 -21.59)" fill="#00814d"/>
    <path id="Tracé_11937" data-name="Tracé 11937" d="M249.744,33.1h-.064V31.935h-2.636v9.919h2.636l0-4.465c0-1.79.888-3.009,3.123-3.009V31.765a3.6,3.6,0,0,0-3.055,1.332" transform="translate(-167.907 -21.59)" fill="#00814d"/>
    <path id="Tracé_11938" data-name="Tracé 11938" d="M274.261,31.683h.121v.87h2.462V18.079h-2.592V23.45h-.1a3.776,3.776,0,0,0-2.557-.987,4.9,4.9,0,0,0-4.843,5.13,5.1,5.1,0,0,0,1.5,3.76,4.823,4.823,0,0,0,3.341,1.37,4.41,4.41,0,0,0,2.665-1.04m-2.517-1.3a2.643,2.643,0,0,1-2.536-2.79,2.644,2.644,0,0,1,2.524-2.8,2.808,2.808,0,0,1,.013,5.589" transform="translate(-181.304 -12.288)" fill="#00814d"/>
    <path id="Tracé_11939" data-name="Tracé 11939" d="M322.238,32.749h-.1v-.812h-2.591v9.919h2.591V36.695c0-2.28,1.417-2.621,2.26-2.621,1.494,0,2.025,1.24,2.025,2.4v5.381h2.592V36.506c0-2.97-1.588-4.738-4.248-4.738a2.994,2.994,0,0,0-2.53.981" transform="translate(-217.186 -21.592)" fill="#00814d"/>
    <path id="Tracé_11940" data-name="Tracé 11940" d="M147.553,36.789a4.743,4.743,0,0,0-4.869-5.021,4.857,4.857,0,0,0-4.919,5.121,4.9,4.9,0,0,0,5.109,5.14,5.3,5.3,0,0,0,4.2-1.778c-.186-.2-1.338-1.417-1.544-1.624a3.329,3.329,0,0,1-2.453,1.111,2.563,2.563,0,0,1-2.625-2.014h7.041a6.054,6.054,0,0,0,.059-.934m-7.091-.907a2.261,2.261,0,0,1,2.312-1.843A2.167,2.167,0,0,1,145,35.882Z" transform="translate(-93.635 -21.592)" fill="#00814d"/>
  </g>
</svg>
