<svg id="logodesjardins" xmlns="http://www.w3.org/2000/svg" xmlns:xlink="http://www.w3.org/1999/xlink" width="118.155" height="25.482" viewBox="0 0 118.155 25.482">
  <defs>
    <clipPath id="clip-path">
      <rect id="Rectangle_33" data-name="Rectangle 33" width="118.155" height="25.482" fill="none"/>
    </clipPath>
  </defs>
  <g id="Groupe_4676" data-name="Groupe 4676" clip-path="url(#clip-path)">
    <path id="Tracé_11919" data-name="Tracé 11919" d="M99.176,18.08H94.289V32.234h4.944c4.427,0,7.288-2.769,7.288-7.053,0-4.248-2.951-7.1-7.345-7.1m-.137,11.75H97.175V20.5h1.992a4.441,4.441,0,0,1,4.492,4.684,4.433,4.433,0,0,1-4.621,4.645" transform="translate(-64.752 -12.416)" fill="#fff"/>
    <path id="Tracé_11920" data-name="Tracé 11920" d="M0,6.371V19.112l11.034,6.37,11.034-6.37V6.371L11.035,0ZM19.081,8.1v9.292l-8.046,4.645L2.989,17.387V8.1L11.035,3.45Z" fill="#fff"/>
    <path id="Tracé_11921" data-name="Tracé 11921" d="M307.15,18.887a1.476,1.476,0,1,1-1.476-1.477,1.478,1.478,0,0,1,1.476,1.477m-.211,3.187h-2.53v9.7h2.53Z" transform="translate(-208.904 -11.956)" fill="#fff"/>
    <path id="Tracé_11922" data-name="Tracé 11922" d="M175.934,35.632c-1.083-.419-1.42-.621-1.42-1.079,0-.434.349-.694.933-.694a3.46,3.46,0,0,1,2.32,1.094l1.468-1.569a5.2,5.2,0,0,0-3.758-1.622c-2.048,0-3.481,1.189-3.481,2.893,0,1.939,1.5,2.695,2.963,3.179.176.057.338.11.488.156.834.263,1.293.408,1.293.913,0,.282-.154.755-1.183.755a3.027,3.027,0,0,1-2.412-1.183l-1.489,1.583a4.9,4.9,0,0,0,3.868,1.739c2.316,0,3.754-1.123,3.754-2.931s-1.263-2.432-3.345-3.234" transform="translate(-117.884 -21.813)" fill="#fff"/>
    <path id="Tracé_11923" data-name="Tracé 11923" d="M357.125,35.632c-1.083-.419-1.42-.621-1.42-1.079,0-.434.348-.694.933-.694a3.462,3.462,0,0,1,2.321,1.094l1.467-1.569a5.2,5.2,0,0,0-3.758-1.622c-2.048,0-3.479,1.189-3.479,2.893,0,1.939,1.5,2.695,2.963,3.179.176.057.337.11.487.156.835.263,1.293.408,1.293.913,0,.282-.154.755-1.182.755a3.026,3.026,0,0,1-2.412-1.183l-1.489,1.583a4.895,4.895,0,0,0,3.868,1.739c2.316,0,3.754-1.123,3.754-2.931s-1.263-2.432-3.345-3.234" transform="translate(-242.316 -21.813)" fill="#fff"/>
    <path id="Tracé_11924" data-name="Tracé 11924" d="M199.472,18.887a1.477,1.477,0,1,1-1.477-1.477,1.479,1.479,0,0,1,1.477,1.477m-3,16.654c1.667,0,2.795-1.146,2.795-3.428V22.074h-2.539v9.935c0,.881-.36,1.317-.966,1.317a1.7,1.7,0,0,1-.843-.237l-.427,2.112a4.835,4.835,0,0,0,1.98.341" transform="translate(-133.563 -11.956)" fill="#fff"/>
    <path id="Tracé_11925" data-name="Tracé 11925" d="M221.223,32.471a4.812,4.812,0,0,0-2.591-.706,4.455,4.455,0,0,0-3.692,1.619c.172.187,1.264,1.345,1.476,1.566a2.418,2.418,0,0,1,1.338-1.018,2.272,2.272,0,0,1,.677-.1,2.241,2.241,0,0,1,.847.154,1.448,1.448,0,0,1,.944,1.366v.633a5.478,5.478,0,0,0-2.145-.373,3.307,3.307,0,0,0-3.582,3.137,3,3,0,0,0,3.148,3.049,3.637,3.637,0,0,0,2.47-1.018h.109v.852h2.4V35.291a3.16,3.16,0,0,0-1.4-2.82m-1,6c0,.493-1.031,1.277-2.253,1.277a1.149,1.149,0,0,1-1.251-1.117c0-.405.225-1.155,1.535-1.155a7.848,7.848,0,0,1,1.968.3v.692h0" transform="translate(-147.302 -21.814)" fill="#fff"/>
    <path id="Tracé_11926" data-name="Tracé 11926" d="M249.684,33.068h-.063V31.931h-2.578v9.7h2.578l0-4.367c0-1.75.868-2.942,3.054-2.942V31.765a3.518,3.518,0,0,0-2.987,1.3" transform="translate(-169.654 -21.814)" fill="#fff"/>
    <path id="Tracé_11927" data-name="Tracé 11927" d="M274.1,31.383h.119v.851h2.407V18.079h-2.535v5.252h-.1a3.693,3.693,0,0,0-2.5-.965,4.79,4.79,0,0,0-4.736,5.017,4.982,4.982,0,0,0,1.469,3.677,4.716,4.716,0,0,0,3.267,1.34,4.313,4.313,0,0,0,2.606-1.017m-2.461-1.271a2.585,2.585,0,0,1-2.48-2.728,2.585,2.585,0,0,1,2.468-2.738,2.746,2.746,0,0,1,.013,5.466" transform="translate(-183.19 -12.416)" fill="#fff"/>
    <path id="Tracé_11928" data-name="Tracé 11928" d="M322.179,32.727h-.1v-.794h-2.534v9.7h2.534V36.586c0-2.23,1.385-2.563,2.21-2.563,1.461,0,1.981,1.213,1.981,2.348v5.262h2.535V36.4c0-2.9-1.553-4.633-4.154-4.633a2.928,2.928,0,0,0-2.474.959" transform="translate(-219.446 -21.816)" fill="#fff"/>
    <path id="Tracé_11929" data-name="Tracé 11929" d="M147.337,36.678a4.639,4.639,0,0,0-4.762-4.91,4.75,4.75,0,0,0-4.81,5.007,4.794,4.794,0,0,0,5,5.026,5.183,5.183,0,0,0,4.108-1.739c-.182-.2-1.309-1.386-1.51-1.589a3.256,3.256,0,0,1-2.4,1.087,2.507,2.507,0,0,1-2.567-1.969h6.885a5.923,5.923,0,0,0,.058-.913m-6.935-.887a2.211,2.211,0,0,1,2.261-1.8,2.12,2.12,0,0,1,2.172,1.8Z" transform="translate(-94.609 -21.816)" fill="#fff"/>
  </g>
</svg>
